{"title":"All About Evil  (2010)","uid":7709820,"size":580175810,"categoryP":"video","categoryS":"movies","magnet":"?xt=urn:btih:ddcd9e4a6d246917a5979897545101a60b86a0b2&amp;dn=All+About+Evil++%282010%29&amp;tr=udp%3A%2F%2Ftracker.openbittorrent.com%3A80&amp;tr=udp%3A%2F%2Fopen.demonii.com%3A1337&amp;tr=udp%3A%2F%2Ftracker.coppersurfer.tk%3A6969&amp;tr=udp%3A%2F%2Fexodus.desync.com%3A6969","seeders":0,"leechers":0,"uploader":"VinhOldman","files":2,"time":1349780087,"description":"All About Evil  (2010) \n98 min  -  Comedy | Horror  -    25 June 2014 (USA)\nIMDB: www.imdb.com/title/tt1307858/\n\n\nVideo: MPEG4 Video (H264) 720x400 23.976fps [Stream 00]\nAudio: MP3 48000Hz stereo 128kbps [Stream 01].\n\nGeneral\nComplete name             :All About Evil  (2010).avi\nFormat                         : AVI\nFormat/Info                    : Audio Video Interleave\nFile size                      : 553 MiB\nDuration                       : 1h 38mn\nOverall bit rate               : 788 Kbps\nWriting application            : Lavf51.12.1\n\nVideo\nID                             : 0\nFormat                         : AVC\nFormat/Info                    : Advanced Video Codec\nFormat profile                 : &lt;a class=&quot;__cf_email__&quot; href=&quot;/cdn-cgi/l/email-protection&quot; data-cfemail=&quot;327a5b555a727e011c03&quot;&gt;[email&amp;#160;protected]&lt;/a&gt;&lt;script cf-hash='f9e31' type=&quot;text/javascript&quot;&gt;\n/* &lt;![CDATA[ */!function(){try{var t=&quot;currentScript&quot;in document?document.currentScript:function(){for(var t=document.getElementsByTagName(&quot;script&quot;),e=t.length;e--;)if(t[e].getAttribute(&quot;cf-hash&quot;))return t[e]}();if(t&amp;&amp;t.previousSibling){var e,r,n,i,c=t.previousSibling,a=c.getAttribute(&quot;data-cfemail&quot;);if(a){for(e=&quot;&quot;,r=parseInt(a.substr(0,2),16),n=2;a.length-n;n+=2)i=parseInt(a.substr(n,2),16)^r,e+=String.fromCharCode(i);e=document.createTextNode(e),c.parentNode.replaceChild(e,c)}}}catch(u){}}();/* ]]&gt; */&lt;/script&gt;\nFormat settings, CABAC         : No\nFormat settings, ReFrames      : 8 frames\nFormat settings, GOP           : M=1, N=12\nCodec ID                       : H264\nDuration                       : 1h 38mn\nBit rate                       : 647 Kbps\nWidth                          : 720 pixels\nHeight                         : 400 pixels\nDisplay aspect ratio           : 16:9\nFrame rate mode                : Variable\nFrame rate                     : 23.976 fps\nColor space                    : YUV\nChroma subsampling             : 4:2:0\nBit depth                      : 8 bits\nScan type                      : Progressive\nBits/(Pixel*Frame)             : 0.094\nStream size                    : 454 MiB (82%)\n\nAudio\nID                             : 1\nFormat                         : MPEG Audio\nFormat version                 : Version 1\nFormat profile                 : Layer 3\nMode                           : Joint stereo\nMode extension                 : MS Stereo\nCodec ID                       : 55\nCodec ID/Hint                  : MP3\nDuration                       : 1h 38mn\nBit rate mode                  : Constant\nBit rate                       : 128 Kbps\nChannel(s)                     : 2 channels\nSampling rate                  : 48.0 KHz\nCompression mode               : Lossy\nStream size                    : 89.9 MiB (16%)\nAlignment                      : Aligned on interleaves\nInterleave, duration           : 24 ms (0.58 video frame)\nInterleave, preload duration   : 24 ms\nWriting library                : LAME3.97\n\n","torrent":{"xt":"urn:btih:ddcd9e4a6d246917a5979897545101a60b86a0b2","amp;dn":"All+About+Evil++%282010%29","amp;tr":["udp%3A%2F%2Ftracker.openbittorrent.com%3A80","udp%3A%2F%2Fopen.demonii.com%3A1337","udp%3A%2F%2Ftracker.coppersurfer.tk%3A6969","udp%3A%2F%2Fexodus.desync.com%3A6969"],"infoHash":"ddcd9e4a6d246917a5979897545101a60b86a0b2","infoHashBuffer":{"type":"Buffer","data":[221,205,158,74,109,36,105,23,165,151,152,151,84,81,1,166,11,134,160,178]},"announce":[],"urlList":[]}}